Coordinates
version=1
nRows=16
nColumns=36
inDegrees=yes

Units are S.I. units (second, meters, Newtons, ...)
If the header above contains a line with 'inDegrees', this indicates whether rotational values are in degrees (yes) or radians (no).

endheader
time	pelvis_tilt	pelvis_list	pelvis_rotation	pelvis_tx	pelvis_ty	pelvis_tz	hip_flexion_r	hip_adduction_r	hip_rotation_r	knee_angle_r	knee_angle_r_beta	ankle_angle_r	subtalar_angle_r	mtp_angle_r	hip_flexion_l	hip_adduction_l	hip_rotation_l	knee_angle_l	knee_angle_l_beta	ankle_angle_l	subtalar_angle_l	mtp_angle_l	lumbar_extension	lumbar_bending	lumbar_rotation	arm_flex_r	arm_add_r	arm_rot_r	elbow_flex_r	pro_sup_r	arm_flex_l	arm_add_l	arm_rot_l	elbow_flex_l	pro_sup_l
      3.49166670	      0.48760452	      5.70575859	   -106.43667146	      0.01587902	      0.89215886	      0.13560651	     13.83951190	     14.89275279	     22.08249004	     18.65084387	      0.32551863	      1.64699480	    -32.42288914	     -7.49999987	     39.12117555	     -9.05112461	      4.10644560	     71.34273242	      1.24516558	    -11.13643769	    -34.18648208	     -7.49999987	    -15.57585925	      2.90112051	     -2.07161287	     14.19975257	     -5.36625285	     -2.56913302	     32.78775013	     85.19533498	     13.93373422	     -7.89118878	      9.91148524	     35.11287289	     90.13583972
      3.49583330	      0.32665366	      6.42046072	   -107.41124319	      0.01921744	      0.89262230	      0.13114965	     14.47830444	     15.49313469	     23.27303461	     18.76586090	      0.32752606	      1.36392275	    -32.24477948	     -7.49999987	     40.26572945	     -9.16812363	      4.22391416	     70.72336300	      1.23435554	    -10.61265884	    -34.24834806	     -7.49999987	    -15.03749698	      3.43149818	     -1.54414664	     14.34461483	     -5.93739530	     -1.51989228	     33.13763275	     78.93134975	     13.73987659	     -7.16377364	      9.85003060	     33.72054104	     81.45607644
      3.50000000	      0.07142852	      6.48534191	   -108.26365324	      0.01559065	      0.90278286	      0.14420461	     13.51958546	     15.65247851	     24.39553230	     17.51312768	      0.30566174	      0.91738555	    -31.50795264	     -7.49999987	     39.66255082	     -9.06291614	      4.58137850	     68.97128423	      1.20377600	    -10.82795511	    -34.31764437	     -7.49999987	    -14.78849389	      3.95054899	     -1.41740051	     14.38803060	     -5.94463974	     -2.61542055	     33.14996067	     85.95883991	     12.63060860	     -6.28811428	      6.62817969	     32.82319455	     90.49833473
      3.50416670	     -0.33902112	      6.52746540	   -108.87693199	      0.01522638	      0.89690819	      0.15405822	     12.78960936	     16.15988853	     25.19608143	     17.49869160	      0.30540978	      1.13113383	    -30.82398108	     -7.49999987	     39.35576150	     -9.06068971	      5.02343477	     68.29679306	      1.19200391	     -9.88065424	    -34.36540865	     -7.49999987	    -14.57316483	      4.65512970	     -1.09421466	     14.16544797	     -6.15510989	     -2.71502124	     32.98850058	     82.62424772	     12.05130319	     -5.58771430	      6.48835471	     31.27956514	     86.60212225
      3.50833330	     -0.80951457	      6.69323216	   -109.40496971	      0.01064869	      0.89369789	      0.15840152	     12.07994707	     16.80252957	     26.06918858	     17.38149134	      0.30336425	      1.15750729	    -30.80209991	     -7.49999987	     39.16051009	     -9.44856089	      5.49565127	     67.74735807	      1.18241446	     -9.21530849	    -34.40146200	     -7.49999987	    -14.23775928	      5.43234753	     -0.91676213	     13.66069864	     -6.43895468	     -2.71410485	     33.30946245	     82.75373656	     10.91615660	     -5.29441672	      6.42957988	     30.78164640	     86.72032877
      3.51250000	     -1.26335732	      6.72737437	   -109.67126192	      0.01049882	      0.89184668	      0.16818927	     10.98482284	     17.28927631	     26.63313971	     17.10249264	      0.29849481	      1.24175110	    -30.84799955	     -7.49999987	     38.78281955	     -9.51094978	      6.44914488	     67.57982472	      1.17949045	     -7.64093096	    -34.40083855	     -7.49999987	    -13.71821013	      6.19747663	     -0.78231931	     12.74565053	     -6.70971647	     -2.73860327	     33.81001868	     82.95937716	      9.87904803	     -4.77389396	      6.07081501	     29.87955159	     86.84799136
      3.51666670	     -1.61609703	      6.79458387	   -110.25406625	      0.01109171	      0.90228713	      0.16710542	     10.08801373	     17.56343933	     27.02081554	     16.62346184	      0.29013414	      1.82851500	    -29.96475376	     -7.49999987	     38.41863504	     -9.59904433	      7.07339536	     66.81829259	      1.16619921	     -6.53099263	    -34.45199858	     -7.49999987	    -13.57224735	      6.82796833	     -0.30843930	     12.24181244	     -7.03413839	     -2.89748371	     34.27839092	     81.19547068	      9.40429227	     -4.05001011	      5.37267157	     28.75128209	     84.59437455
      3.52083330	     -1.87094108	      6.54355414	   -110.56875038	      0.01089614	      0.89433525	      0.17614832	      9.15149952	     17.69974900	     27.43654073	     16.71978116	      0.29181523	      1.49670471	    -30.51035859	     -7.49999987	     37.86004884	     -9.49137791	      7.39840865	     65.60236273	      1.14497723	     -5.03327104	    -34.46816912	     -7.49999987	    -13.56059714	      7.06715968	     -0.14231200	     11.53269099	     -7.23306347	     -2.66511639	     34.76712623	     79.96940422	      8.83901637	     -3.59950197	      4.89955209	     27.80800716	     82.84068621
      3.52500000	     -2.36736829	      6.54602385	   -110.44131113	      0.00698648	      0.89525614	      0.17974539	      8.49986334	     18.27681076	     27.55617803	     17.03011038	      0.29723150	      1.33568228	    -31.35692525	     -7.49999987	     38.05977717	     -9.51396436	      8.15890421	     64.59048526	      1.12731663	     -3.58958880	    -34.46585090	     -7.49999987	    -13.60524816	      7.68937378	     -0.49683332	     11.12360433	     -7.10607968	     -3.49463300	     35.32760232	     87.41329295	      7.97945949	     -3.17576196	      2.08973732	     27.98162637	     89.59714112
      3.52916670	     -2.71238342	      6.45478297	   -110.25678241	      0.00680460	      0.89969493	      0.17974781	      7.90021695	     18.59389970	     27.26175361	     16.84704914	      0.29403648	      1.79558376	    -31.51010864	     -7.49999987	     38.10255828	     -9.70330734	      8.51807199	     63.20940951	      1.10321231	     -3.03000569	    -34.46629387	     -7.49999987	    -13.47613975	      8.02285144	     -0.77559695	     10.75608803	     -7.13033077	     -3.44377610	     35.57438477	     87.40535873	      7.55657463	     -3.08635722	      2.07290481	     27.61352236	     89.60207333
      3.53333330	     -2.97772679	      6.09620075	   -109.81055104	      0.00753369	      0.90006241	      0.17890957	      7.27525729	     18.71316042	     26.94848719	     16.59385617	      0.28961743	      2.13505820	    -31.36325046	     -7.49999987	     37.91243576	     -9.57601777	      8.73304057	     61.66241809	      1.07621222	     -2.86098913	    -34.44720762	     -7.49999987	    -14.25908699	      8.22855394	     -0.80132619	     11.18746149	     -7.58778167	     -1.35771635	     36.30106130	     81.26211234	      7.85297207	     -3.24288667	      3.75924255	     27.06175513	     82.26249173
      3.53750000	     -3.10671485	      6.11147152	   -109.85153899	      0.00751890	      0.89836625	      0.17863554	      7.31927335	     18.91448763	     26.86980156	     16.69453584	      0.29137462	      2.39562144	    -31.00865907	     -7.49999987	     38.44553097	     -9.71609764	      8.83273813	     60.76762740	      1.06059518	     -3.31063688	    -34.43416576	     -7.49999987	    -14.52126532	      8.39432330	     -0.72151032	     11.97921590	     -7.73574208	     -0.84492048	     36.45768590	     86.18959438	      7.69639949	     -3.11134062	      2.19566448	     27.19335526	     87.05920170
      3.54166670	     -3.07078617	      5.98559518	   -110.45848972	      0.00731306	      0.90089603	      0.17772928	      7.56922135	     19.04702945	     27.00159803	     17.42004184	      0.30403709	      2.96043965	    -30.45871510	     -7.49999987	     39.05147024	     -9.85188780	      8.36858961	     60.56202632	      1.05700676	     -4.25211978	    -34.45863505	     -7.49999987	    -15.10238895	      8.17962366	     -0.02501432	     12.70050115	     -7.66586354	     -0.48000338	     36.94812671	     86.26429021	      7.82937638	     -3.02356959	      2.03493829	     27.17853326	     87.09390960
      3.54583330	     -3.09523905	      5.93013353	   -110.91002961	      0.00240887	      0.89444001	      0.18317877	      7.60279894	     19.26917402	     27.00523405	     18.01644410	      0.31444627	      4.90195548	    -28.88424973	     -7.49999987	     39.74290751	     -9.90351725	      8.34446494	     60.97220158	      1.06416567	     -4.07391570	    -34.45935159	     -7.49999987	    -15.16683245	      7.92321030	      0.29779527	     13.28307719	     -7.86189872	      1.67980102	     36.96076779	     84.75275233	      7.61459037	     -3.02031345	      1.87769876	     27.13915987	     85.56094883
      3.55000000	     -3.07274552	      5.87781682	   -111.93271577	      0.00251600	      0.89701996	      0.18214734	      7.68680671	     19.41058252	     27.23791403	     18.84776479	      0.32895555	      6.96947273	    -26.81902046	     -7.49999987	     40.26775263	     -9.86661350	      8.71908693	     61.22972341	      1.06866027	     -3.96137960	    -34.43145833	     -7.49999987	    -15.45344877	      7.61306498	      1.06515600	     13.84279913	     -8.00358364	      2.88779850	     37.07920504	     84.92334192	      7.52235235	     -2.97647510	      1.55930700	     27.00278516	     85.71372399
      3.55416670	     -3.06271397	      5.93117071	   -112.78854805	      0.00141710	      0.89486748	      0.18289183	      7.67598493	     19.64022951	     27.96437736	     19.29973700	      0.33684396	      7.60102211	    -26.56839970	     -7.49999987	     40.84018190	     -9.80247655	      9.30633697	     60.85732869	      1.06216076	     -3.65669633	    -34.41156304	     -7.49999987	    -15.74084953	      7.45267773	      1.58370256	     14.39729159	     -7.91821312	      3.05580535	     37.22832525	     84.93714546	      7.50911916	     -3.00272500	      1.54300236	     27.00466108	     85.71603493
